<?xml version="1.0" encoding="UTF-8" standalone="no"?>
<!DOCTYPE svg PUBLIC "-//W3C//DTD SVG 1.1//EN" "http://www.w3.org/Graphics/SVG/1.1/DTD/svg11.dtd">
<svg width="100%" height="100%" viewBox="0 0 1245 256" version="1.1" xmlns="http://www.w3.org/2000/svg" xmlns:xlink="http://www.w3.org/1999/xlink" xml:space="preserve" xmlns:serif="http://www.serif.com/" style="fill-rule:evenodd;clip-rule:evenodd;stroke-linejoin:round;stroke-miterlimit:2;">
    <g transform="matrix(1,0,0,1,111.623898,484.149105)">
        <g transform="matrix(1.368164,0,0,1.368164,-236.12034,-503.749162)">
            <g transform="matrix(0.776462,0,0,1,71.708855,-0.051727)">
                <path d="M305.976,174.686C287.379,205.889 267.283,205.861 234.114,182.954C189.656,146.715 188.827,138.517 178.302,138.389C177.921,137.601 176.983,135.666 168.5,133.519L167.5,132.623L166.588,131.792C178.887,128.351 178.715,128.355 180.558,127.94C230.558,116.662 255.476,185.906 304.327,165.076C305.378,170.155 302.649,170.885 305.976,174.686Z" style="fill:rgb(61,150,244);stroke:white;stroke-width:4.76px;"/>
            </g>
            <g transform="matrix(0.776462,0,0,1,71.708855,-0.051727)">
                <path d="M30.676,161.449C19.62,127.154 38.135,124.219 87.522,110.53C88.798,109.706 92.417,108.172 92.852,107.987C94.643,107.104 94.432,107.224 96.327,106.217C103.184,113.71 104.55,111.934 111.462,119.5L112.5,119.91L113.572,120.487C113.527,154.205 48.313,150.999 48.528,165.469L47.5,165.379C44.268,167.672 44.309,167.418 41.651,170.564C36.71,165.707 39.085,163.288 32.5,160.716L31.5,160.939L30.676,161.449Z" style="fill:rgb(20,126,246);stroke:white;stroke-width:4.76px;"/>
            </g>
            <g transform="matrix(0.776462,0,0,1,71.708855,-0.051727)">
                <path d="M87.522,110.53C83.445,101.171 48.524,90.959 75.658,39.5L76.094,38.5L77.437,37.484C85.019,15.868 104.663,17.277 109.513,17.077L110.007,18.5L110.681,19.5C121.295,27.76 120.682,32.203 120.494,33.562C117.233,33.913 98.191,35.96 81.721,46.876C75.539,50.974 83.663,63.352 92.922,72.06C108.883,87.074 108.35,88.321 113.572,120.487L112.5,119.91L111.462,119.5C104.55,111.934 103.184,113.71 96.327,106.217C103.306,97.334 105.498,97.266 102.657,86.51L101.014,87.5L100.3,88.5L100.084,89.5C97.031,96.783 96,96.071 93.3,103.5L93.165,104.5L92.865,105.5L91.875,106.5L92.852,107.987C92.417,108.172 88.798,109.706 87.522,110.53Z" style="fill:rgb(66,145,238);stroke:white;stroke-width:4.76px;"/>
            </g>
            <g transform="matrix(0.776462,0,0,1,71.708855,-0.051727)">
                <path d="M254.499,38.509C268.843,41.066 269.785,39.646 280.03,49.858L279.5,50.685C272.602,53.672 271.867,50.902 265.339,54.323C262.086,56.027 264.839,56.67 265.507,57.485C272.602,56.28 274.152,53.585 284.947,61.466C285.614,92.677 275.189,92.561 276.506,103.448C267.301,115.046 269.636,125.493 268.275,134.863C259.081,130.265 259.009,130.724 253.797,127.079C246.437,121.932 243.329,101.787 249.874,86.682C253.455,78.419 253.453,78.688 257.048,70.363C259.187,63.191 264.025,56.303 258.129,46.917C256.163,41.879 252.108,43.485 253.397,39.5L254.499,38.509Z" style="fill:rgb(67,168,251);stroke:white;stroke-width:4.76px;"/>
            </g>
            <g transform="matrix(0.776462,0,0,1,71.708855,-0.051727)">
                <path d="M109.513,17.077C117.711,16.952 142.811,12.036 154.323,33.583C162.781,49.414 155.718,68.896 161.405,85.566L160.5,85.747C153.597,89.923 152.797,87.638 145.5,91.022L144.369,91.986C116.445,79.93 135.191,43.305 120.494,33.562C120.682,32.203 121.295,27.76 110.681,19.5L110.007,18.5L109.513,17.077Z" style="fill:rgb(20,113,235);stroke:white;stroke-width:4.76px;"/>
            </g>
            <g transform="matrix(0.776462,0,0,1,71.708855,-0.051727)">
                <path d="M112.482,195.313C102.235,195.306 102.475,194.523 97.445,193.927C79.649,191.818 43.634,210.661 36.352,180.533C40.727,176.605 39.245,175.893 41.651,170.564C44.309,167.418 44.268,167.672 47.5,165.379L48.528,165.469C80.459,174.414 83.753,161.881 112.671,178.174L111.902,179.5C109.705,183.871 107.926,187.081 112.482,195.313Z" style="fill:rgb(15,113,238);stroke:white;stroke-width:4.76px;"/>
            </g>
            <g transform="matrix(0.776462,0,0,1,71.708855,-0.051727)">
                <path d="M276.506,103.448C299.788,108.355 299.991,108.696 314.842,121.178L313.408,122.5L313.329,123.5C311.559,129.07 310.303,128.232 307.511,133.507L306.468,135.48C303.135,139.414 302.787,142.983 300.774,143.68C298.344,144.523 300.073,145.396 299.622,146.5L298.5,147.242L297.411,147.596C286.954,140.282 286.325,141.657 268.275,134.863C269.636,125.493 267.301,115.046 276.506,103.448Z" style="fill:rgb(4,85,227);stroke:white;stroke-width:4.76px;"/>
            </g>
            <g transform="matrix(0.776462,0,0,1,71.708855,-0.051727)">
                <path d="M178.302,138.389C174.488,147.276 174.843,147.216 172.006,156.404C171.063,159.049 164.861,176.447 147.512,181.545C129.287,186.902 130.849,190.939 112.482,195.313C107.926,187.081 109.705,183.871 111.902,179.5L112.671,178.174C121.579,181.423 130.732,186.2 138.095,179.206C141.675,181.668 141.821,179.711 147.516,177.531C154.093,175.014 156.45,176.054 155.471,171.826C162.503,166.687 155.927,166.478 155.5,166.491C151.707,166.611 151.632,169.432 142.407,166.484C143.423,158.793 142.523,151.968 148.287,141.359C151.18,138.278 150.45,136.717 166.588,131.792L167.5,132.623L168.5,133.519C176.983,135.666 177.921,137.601 178.302,138.389Z" style="fill:rgb(18,125,246);stroke:white;stroke-width:4.76px;"/>
            </g>
            <g transform="matrix(0.776462,0,0,1,71.708855,-0.051727)">
                <path d="M162.519,86.461C174.218,84.134 173.929,83.439 192.096,71.026C198.374,74.883 206.4,73.323 217.456,85.315C192.22,89.771 194.073,99.658 168.51,97.43C166.173,92.035 164.227,93.223 162.465,87.5L162.519,86.461Z" style="fill:rgb(16,138,252);stroke:white;stroke-width:4.76px;"/>
            </g>
            <g transform="matrix(0.776462,0,0,1,71.708855,-0.051727)">
                <path d="M210.447,59.404C236.422,40.462 238.775,37.305 254.499,38.509L253.397,39.5C252.108,43.485 256.163,41.879 258.129,46.917C244.65,54.388 245.52,55.492 235.832,69.688C235.156,68.858 234.21,68.274 233.534,67.444C232.465,66.131 231.165,69.349 213.5,60.638L212.5,60.128L211.5,60.473L210.447,59.404Z" style="fill:rgb(103,187,252);stroke:white;stroke-width:4.76px;"/>
            </g>
            <g transform="matrix(0.776462,0,0,1,71.708855,-0.051727)">
                <path d="M314.842,121.178C316.003,122.631 323.699,132.27 321.391,143.482C318.565,157.207 309.747,171.996 305.976,174.686C302.649,170.885 305.378,170.155 304.327,165.076C306.722,156.957 298.596,149.29 297.411,147.596L298.5,147.242L299.622,146.5C300.073,145.396 298.344,144.523 300.774,143.68C302.787,142.983 303.135,139.414 306.468,135.48C307.292,134.616 307.293,134.711 307.511,133.507C310.303,128.232 311.559,129.07 313.329,123.5L313.408,122.5L314.842,121.178Z" style="fill:rgb(56,162,251);stroke:white;stroke-width:4.76px;"/>
            </g>
            <g transform="matrix(0.776462,0,0,1,71.708855,-0.051727)">
                <path d="M192.096,71.026C209.029,60.369 208.957,60.298 210.447,59.404L211.5,60.473L212.5,60.128L213.5,60.638C231.165,69.349 232.465,66.131 233.534,67.444C234.21,68.274 235.156,68.858 235.832,69.688C228.307,79.514 229.085,80.717 217.456,85.315C206.4,73.323 198.374,74.883 192.096,71.026Z" style="fill:rgb(9,90,230);stroke:white;stroke-width:4.76px;"/>
            </g>
            <g transform="matrix(0.776462,0,0,1,71.708855,-0.051727)">
                <path d="M161.405,85.566L162.519,86.461L162.465,87.5C164.227,93.223 166.173,92.035 168.51,97.43C156.194,95.203 156.373,95.226 144.369,91.986L145.5,91.022C152.797,87.638 153.597,89.923 160.5,85.747L161.405,85.566Z" style="fill:rgb(12,79,225);stroke:white;stroke-width:4.76px;"/>
            </g>
            <g transform="matrix(0.776462,0,0,1,71.708855,-0.051727)">
                <path d="M36.352,180.533C31.08,162.833 31.159,162.967 30.676,161.449L31.5,160.939L32.5,160.716C39.085,163.288 36.71,165.707 41.651,170.564C39.245,175.893 40.727,176.605 36.352,180.533Z" style="fill:rgb(18,147,251);stroke:white;stroke-width:4.76px;"/>
            </g>
            <g transform="matrix(0.776462,0,0,1,71.708855,-0.051727)">
                <path d="M92.852,107.987C94.643,107.104 94.432,107.224 96.327,106.217C103.306,97.334 105.498,97.266 102.657,86.51L101.014,87.5L100.3,88.5L100.084,89.5C97.031,96.783 96,96.071 93.3,103.5L93.165,104.5L92.865,105.5L91.875,106.5L92.852,107.987Z" style="fill:rgb(63,167,250);stroke:white;stroke-width:4.76px;"/>
            </g>
            <g transform="matrix(0.776462,0,0,1,71.708855,-0.051727)">
                <path d="M280.03,49.858C283.272,55.544 283.231,55.356 284.947,61.466C274.152,53.585 272.602,56.28 265.507,57.485C264.839,56.67 262.086,56.027 265.339,54.323C271.867,50.902 272.602,53.672 279.5,50.685L280.03,49.858Z" style="fill:rgb(10,89,236);stroke:white;stroke-width:4.76px;"/>
            </g>
            <g transform="matrix(0.776462,0,0,1,71.708855,-0.051727)">
                <path d="M155.471,171.826C162.503,166.687 155.927,166.478 155.5,166.491C151.707,166.611 151.632,169.432 142.407,166.484L141.215,172.425C145.051,174.459 145.187,173.178 155.471,171.826Z" style="fill:rgb(6,81,235);stroke:white;stroke-width:4.76px;"/>
            </g>
            <g transform="matrix(0.776462,0,0,1,71.708855,-0.051727)">
                <path d="M138.095,179.206C141.675,181.668 141.821,179.711 147.516,177.531C154.093,175.014 156.45,176.054 155.471,171.826C145.187,173.178 145.051,174.459 141.215,172.425L138.095,179.206Z" style="fill:rgb(15,108,247);stroke:white;stroke-width:4.76px;"/>
            </g>
        </g>
        <g transform="matrix(1.368164,0,0,1.368164,-236.12034,-503.749162)">
            <path d="M979.095,146.817C976.129,146.792 973.887,152.113 967.427,154.293C923.802,169.014 907.845,94.304 946.515,80.541C966.278,73.507 977.26,87.799 977.456,87.802C980.183,87.842 978.39,71.388 978.713,51.501C978.738,49.973 978.811,45.448 997.545,48.322C999.6,48.638 999.652,49.729 999.487,118.5C999.409,151.329 1001.246,154.647 995.499,154.676C984.254,154.732 979.272,158.037 979.095,146.817ZM979.575,117.498C979.061,114.874 979.793,100.787 964.444,97.948C959.796,97.088 952.482,99.862 949.795,103.736C932.069,129.298 972.311,157.932 979.575,117.498Z" style="fill:rgb(7,30,92);stroke:rgb(91,255,255);stroke-width:2.1px;"/>
            <path d="M427.525,138.5C427.237,152.269 429.119,154.243 425.481,154.31C424.024,154.337 407.771,154.636 407.354,152.533C405.175,141.539 415.808,89.38 390.639,98.815C375.131,104.629 387.749,154.051 380.481,154.304C372.578,154.579 362.037,156.067 361.991,150.498C361.946,144.966 361.44,83.218 362.235,81.353C362.445,80.86 383.303,76.626 382.748,84.497C381.893,96.629 391.953,70.958 413.465,80.578C421.43,84.14 423.148,92.465 425.228,90.194C427.456,87.761 447.097,66.315 466.305,86.665C467.714,88.158 473.498,87.475 472.531,150.5C472.43,157.138 451.555,155.668 451.559,151.498C451.589,121.858 455.689,91.325 435.599,98.753C424.997,102.673 427.565,122.995 427.525,138.5Z" style="fill:rgb(7,30,92);stroke:rgb(91,255,255);stroke-width:2.1px;"/>
            <path d="M663.404,107.485C677.993,59.534 735.013,78.659 738.665,107.474C747.209,174.902 652.192,170.74 663.404,107.485ZM683.59,117.501C683.605,117.585 682.814,133.123 697.449,136.76C725.289,143.679 724.849,88.543 694.67,98.953C686.553,101.753 683.909,115.802 683.59,117.501Z" style="fill:rgb(7,30,92);stroke:rgb(91,255,255);stroke-width:2.1px;"/>
            <path d="M866.545,145.548C818.63,183.036 777.125,114.359 816.566,85.595C851.978,59.769 901.421,107.059 866.545,145.548ZM828.671,101.713C805.665,125.612 846.292,154.024 855.695,124.561C860.355,109.957 848.403,88.918 828.671,101.713Z" style="fill:rgb(8,31,92);stroke:rgb(91,255,255);stroke-width:2.1px;"/>
            <path d="M587.485,89.513C587.988,90.276 593.742,99.017 591.326,100.27C590.051,100.932 575.895,108.273 574.486,106.513C547.989,73.418 530.34,136.991 560.491,136.928C572.61,136.902 573.764,126.304 577.404,127.808C585.185,131.024 594.46,133.55 591.076,139.285C569.292,176.204 505.609,148.731 526.904,98.682C533.692,82.729 563.041,66.785 587.485,89.513Z" style="fill:rgb(8,31,93);stroke:rgb(91,255,255);stroke-width:2.1px;"/>
            <path d="M792.501,80.264C793.794,80.53 801.066,82.025 795.483,96.492C794.73,98.445 794.045,97.505 780.542,98C773.414,98.261 782.034,154.254 775.49,154.337C774.055,154.355 758.03,154.559 757.639,152.475C756.745,147.706 759.619,98.417 755.578,98.112C748.251,97.559 746.085,99.748 745.891,95.465C745.465,86.043 745.647,80.426 748.475,80.339C754.507,80.154 757.503,83.439 757.661,77.514C757.661,77.488 752.696,40.49 793.422,46.9C804.908,48.708 801.173,53.437 797.455,64.476C795.824,69.318 778.027,54.928 777.628,77.492C777.606,78.711 778.347,79.408 778.475,79.529C779.948,80.916 780.076,80.165 792.501,80.264Z" style="fill:rgb(8,31,92);stroke:rgb(91,255,255);stroke-width:2.1px;"/>
            <path d="M907.498,154.641C893.38,154.577 892.925,155.732 891.119,153.85C889.207,151.859 890.602,58.791 890.726,50.526C890.78,46.943 904.721,48.125 909.544,48.355C912.347,48.488 911.272,68.389 911.258,74.498C911.081,150.862 913.121,153.86 907.498,154.641Z" style="fill:rgb(10,31,90);stroke:rgb(91,255,255);stroke-width:2.1px;"/>
            <path d="M656.555,85.504C656.452,86.687 656.359,98.837 653.582,98.883C650.086,98.941 637.232,96.069 629.787,107.667C622.974,118.279 629.89,154.147 624.464,154.267C622.993,154.3 606.591,154.665 606.141,152.604C606.093,152.387 605.775,82.769 606.345,81.412C607.128,79.55 626.24,79.212 626.296,82.522C626.307,83.134 626.488,93.762 628.77,89.771C629.669,88.198 634.979,78.912 648.505,78.646C656.414,78.49 656.538,80.304 656.555,85.504Z" style="fill:rgb(7,31,91);stroke:rgb(91,255,255);stroke-width:2.1px;"/>
            <path d="M503.504,80.179C508.108,80.512 508.112,80.377 508.477,80.539C511.282,81.779 509.608,146.735 509.459,152.49C509.388,155.249 490.931,154.928 489.58,153.433C487.477,151.105 488.944,88.127 489.076,82.45C489.185,77.782 491.736,80.374 503.504,80.179Z" style="fill:rgb(10,30,90);stroke:rgb(91,255,255);stroke-width:2.1px;"/>
            <path d="M490.517,66.484C489.907,65.529 485.469,58.583 488.438,52.47C491.479,46.208 497.553,45.834 498.52,45.775C521.544,44.357 512.191,83.444 490.517,66.484Z" style="fill:rgb(12,31,91);stroke:rgb(91,255,255);stroke-width:2.1px;"/>
        </g>
        <g transform="matrix(1.368164,0,0,1.368164,-236.12034,-503.749162)">
            <g transform="matrix(0.776462,0,0,1,71.938918,0)">
                <path d="M166.588,131.792C178.887,128.351 178.715,128.355 180.558,127.94C230.558,116.662 255.476,185.906 304.327,165.076C305.378,170.155 302.649,170.885 305.976,174.686C287.379,205.889 267.283,205.861 234.114,182.954C189.656,146.715 188.827,138.517 178.302,138.389C177.921,137.601 176.983,135.666 168.5,133.519L167.5,132.623L166.588,131.792Z" style="fill:rgb(61,150,244);"/>
            </g>
        </g>
        <g transform="matrix(1.368164,0,0,1.368164,-236.12034,-503.749162)">
            <g transform="matrix(0.776462,0,0,1,71.938918,0)">
                <path d="M96.327,106.217C103.184,113.71 104.55,111.934 111.462,119.5L112.5,119.91L113.572,120.487C113.527,154.205 48.313,150.999 48.528,165.469L47.5,165.379C44.268,167.672 44.309,167.418 41.651,170.564C36.71,165.707 39.085,163.288 32.5,160.716L31.5,160.939L30.676,161.449C19.62,127.154 38.135,124.219 87.522,110.53C88.798,109.706 92.417,108.172 92.852,107.987C94.643,107.104 94.432,107.224 96.327,106.217Z" style="fill:rgb(20,126,246);"/>
            </g>
        </g>
        <g transform="matrix(1.368164,0,0,1.368164,-236.12034,-503.749162)">
            <g transform="matrix(0.776462,0,0,1,71.938918,0)">
                <path d="M109.513,17.077L110.007,18.5L110.681,19.5C121.295,27.76 120.682,32.203 120.494,33.562C117.233,33.913 98.191,35.96 81.721,46.876C75.539,50.974 83.663,63.352 92.922,72.06C108.883,87.074 108.35,88.321 113.572,120.487L112.5,119.91L111.462,119.5C104.55,111.934 103.184,113.71 96.327,106.217C103.306,97.334 105.498,97.266 102.657,86.51L101.014,87.5L100.3,88.5L100.084,89.5C97.031,96.783 96,96.071 93.3,103.5L93.165,104.5L92.865,105.5L91.875,106.5L92.852,107.987C92.417,108.172 88.798,109.706 87.522,110.53C83.445,101.171 48.524,90.959 75.658,39.5L76.094,38.5L77.437,37.484C85.019,15.868 104.663,17.277 109.513,17.077Z" style="fill:rgb(66,145,238);"/>
            </g>
        </g>
        <g transform="matrix(1.368164,0,0,1.368164,-236.12034,-503.749162)">
            <g transform="matrix(0.776462,0,0,1,71.938918,0)">
                <path d="M254.499,38.509C268.843,41.066 269.785,39.646 280.03,49.858L279.5,50.685C272.602,53.672 271.867,50.902 265.339,54.323C262.086,56.027 264.839,56.67 265.507,57.485C272.602,56.28 274.152,53.585 284.947,61.466C285.614,92.677 275.189,92.561 276.506,103.448C267.301,115.046 269.636,125.493 268.275,134.863C259.081,130.265 259.009,130.724 253.797,127.079C246.437,121.932 243.329,101.787 249.874,86.682C253.455,78.419 253.453,78.688 257.048,70.363C259.187,63.191 264.025,56.303 258.129,46.917C256.163,41.879 252.108,43.485 253.397,39.5L254.499,38.509Z" style="fill:rgb(67,168,251);"/>
            </g>
        </g>
        <g transform="matrix(1.368164,0,0,1.368164,-236.12034,-503.749162)">
            <g transform="matrix(0.776462,0,0,1,71.938918,0)">
                <path d="M109.513,17.077C117.711,16.952 142.811,12.036 154.323,33.583C162.781,49.414 155.718,68.896 161.405,85.566L160.5,85.747C153.597,89.923 152.797,87.638 145.5,91.022L144.369,91.986C116.445,79.93 135.191,43.305 120.494,33.562C120.682,32.203 121.295,27.76 110.681,19.5L110.007,18.5L109.513,17.077Z" style="fill:rgb(20,113,235);"/>
            </g>
        </g>
        <g transform="matrix(1.368164,0,0,1.368164,-236.12034,-503.749162)">
            <g transform="matrix(0.776462,0,0,1,71.938918,0)">
                <path d="M48.528,165.469C80.459,174.414 83.753,161.881 112.671,178.174L111.902,179.5C109.705,183.871 107.926,187.081 112.482,195.313C102.235,195.306 102.475,194.523 97.445,193.927C79.649,191.818 43.634,210.661 36.352,180.533C40.727,176.605 39.245,175.893 41.651,170.564C44.309,167.418 44.268,167.672 47.5,165.379L48.528,165.469Z" style="fill:rgb(15,113,238);"/>
            </g>
        </g>
        <g transform="matrix(1.368164,0,0,1.368164,-236.12034,-503.749162)">
            <g transform="matrix(0.776462,0,0,1,71.938918,0)">
                <path d="M276.506,103.448C299.788,108.355 299.991,108.696 314.842,121.178L313.408,122.5L313.329,123.5C311.559,129.07 310.303,128.232 307.511,133.507C307.163,134.165 306.816,134.822 306.468,135.48C303.135,139.414 302.787,142.983 300.774,143.68C298.344,144.523 300.073,145.396 299.622,146.5L298.5,147.242L297.411,147.596C286.954,140.282 286.325,141.657 268.275,134.863C269.636,125.493 267.301,115.046 276.506,103.448Z" style="fill:rgb(4,85,227);"/>
            </g>
        </g>
        <g transform="matrix(1.368164,0,0,1.368164,-236.12034,-503.749162)">
            <g transform="matrix(0.776462,0,0,1,71.938918,0)">
                <path d="M166.588,131.792L167.5,132.623L168.5,133.519C176.983,135.666 177.921,137.601 178.302,138.389C174.488,147.276 174.843,147.216 172.006,156.404C171.063,159.049 164.861,176.447 147.512,181.545C129.287,186.902 130.849,190.939 112.482,195.313C107.926,187.081 109.705,183.871 111.902,179.5L112.671,178.174C121.579,181.423 130.732,186.2 138.095,179.206C141.675,181.668 141.821,179.711 147.516,177.531C154.093,175.014 156.45,176.054 155.471,171.826C162.503,166.687 155.927,166.478 155.5,166.491C151.707,166.611 151.632,169.432 142.407,166.484C143.423,158.793 142.523,151.968 148.287,141.359C151.18,138.278 150.45,136.717 166.588,131.792Z" style="fill:rgb(18,125,246);"/>
            </g>
        </g>
        <g transform="matrix(1.368164,0,0,1.368164,-236.12034,-503.749162)">
            <g transform="matrix(0.776462,0,0,1,71.938918,0)">
                <path d="M192.096,71.026C198.374,74.883 206.4,73.323 217.456,85.315C192.22,89.771 194.073,99.658 168.51,97.43C166.173,92.035 164.227,93.223 162.465,87.5L162.519,86.461C174.218,84.134 173.929,83.439 192.096,71.026Z" style="fill:rgb(16,138,252);"/>
            </g>
        </g>
        <g transform="matrix(1.368164,0,0,1.368164,-236.12034,-503.749162)">
            <g transform="matrix(0.776462,0,0,1,71.938918,0)">
                <path d="M254.499,38.509L253.397,39.5C252.108,43.485 256.163,41.879 258.129,46.917C244.65,54.388 245.52,55.492 235.832,69.688C235.156,68.858 234.21,68.274 233.534,67.444C232.465,66.131 231.165,69.349 213.5,60.638L212.5,60.128L211.5,60.473L210.447,59.404C236.422,40.462 238.775,37.305 254.499,38.509Z" style="fill:rgb(103,187,252);"/>
            </g>
        </g>
        <g transform="matrix(1.368164,0,0,1.368164,-236.12034,-503.749162)">
            <g transform="matrix(0.776462,0,0,1,71.938918,0)">
                <path d="M314.842,121.178C316.003,122.631 323.699,132.27 321.391,143.482C318.565,157.207 309.747,171.996 305.976,174.686C302.649,170.885 305.378,170.155 304.327,165.076C306.722,156.957 298.596,149.29 297.411,147.596L298.5,147.242L299.622,146.5C300.073,145.396 298.344,144.523 300.774,143.68C302.787,142.983 303.135,139.414 306.468,135.48C307.292,134.616 307.293,134.711 307.511,133.507C310.303,128.232 311.559,129.07 313.329,123.5L313.408,122.5L314.842,121.178Z" style="fill:rgb(56,162,251);"/>
            </g>
        </g>
        <g transform="matrix(1.368164,0,0,1.368164,-236.12034,-503.749162)">
            <g transform="matrix(0.776462,0,0,1,71.938918,0)">
                <path d="M210.447,59.404L211.5,60.473L212.5,60.128L213.5,60.638C231.165,69.349 232.465,66.131 233.534,67.444C234.21,68.274 235.156,68.858 235.832,69.688C228.307,79.514 229.085,80.717 217.456,85.315C206.4,73.323 198.374,74.883 192.096,71.026C209.029,60.369 208.957,60.298 210.447,59.404Z" style="fill:rgb(9,90,230);"/>
            </g>
        </g>
        <g transform="matrix(1.368164,0,0,1.368164,-236.12034,-503.749162)">
            <g transform="matrix(0.776462,0,0,1,71.938918,0)">
                <path d="M161.405,85.566C161.776,85.864 162.147,86.163 162.519,86.461L162.465,87.5C164.227,93.223 166.173,92.035 168.51,97.43C156.194,95.203 156.373,95.226 144.369,91.986L145.5,91.022C152.797,87.638 153.597,89.923 160.5,85.747L161.405,85.566Z" style="fill:rgb(12,79,225);"/>
            </g>
        </g>
        <g transform="matrix(1.368164,0,0,1.368164,-236.12034,-503.749162)">
            <g transform="matrix(0.776462,0,0,1,71.938918,0)">
                <path d="M30.676,161.449L31.5,160.939L32.5,160.716C39.085,163.288 36.71,165.707 41.651,170.564C39.245,175.893 40.727,176.605 36.352,180.533C31.08,162.833 31.159,162.967 30.676,161.449Z" style="fill:rgb(18,147,251);"/>
            </g>
        </g>
        <g transform="matrix(1.368164,0,0,1.368164,-236.12034,-503.749162)">
            <g transform="matrix(0.776462,0,0,1,71.938918,0)">
                <path d="M102.657,86.51C105.498,97.266 103.306,97.334 96.327,106.217C94.432,107.224 94.643,107.104 92.852,107.987L91.875,106.5L92.865,105.5L93.165,104.5L93.3,103.5C96,96.071 97.031,96.783 100.084,89.5L100.3,88.5L101.014,87.5L102.657,86.51Z" style="fill:rgb(63,167,250);"/>
            </g>
        </g>
        <g transform="matrix(1.368164,0,0,1.368164,-236.12034,-503.749162)">
            <g transform="matrix(0.776462,0,0,1,71.938918,0)">
                <path d="M280.03,49.858C283.272,55.544 283.231,55.356 284.947,61.466C274.152,53.585 272.602,56.28 265.507,57.485C264.839,56.67 262.086,56.027 265.339,54.323C271.867,50.902 272.602,53.672 279.5,50.685L280.03,49.858Z" style="fill:rgb(10,89,236);"/>
            </g>
        </g>
        <g transform="matrix(1.368164,0,0,1.368164,-236.12034,-503.749162)">
            <g transform="matrix(0.776462,0,0,1,71.938918,0)">
                <path d="M142.407,166.484C151.632,169.432 151.707,166.611 155.5,166.491C155.927,166.478 162.503,166.687 155.471,171.826C145.187,173.178 145.051,174.459 141.215,172.425L142.407,166.484Z" style="fill:rgb(6,81,235);"/>
            </g>
        </g>
        <g transform="matrix(1.368164,0,0,1.368164,-236.12034,-503.749162)">
            <g transform="matrix(0.776462,0,0,1,71.938918,0)">
                <path d="M155.471,171.826C156.45,176.054 154.093,175.014 147.516,177.531C141.821,179.711 141.675,181.668 138.095,179.206C139.135,176.946 140.175,174.685 141.215,172.425C145.051,174.459 145.187,173.178 155.471,171.826Z" style="fill:rgb(15,108,247);"/>
            </g>
        </g>
    </g>
</svg>
